<?xml version="1.0" encoding="utf-8"?><svg viewBox="0 0 1920 1449" xmlns="http://www.w3.org/2000/svg" xmlns:xlink="http://www.w3.org/1999/xlink"><style>:root>svg{display:none}:root>svg:target{display:block}</style><svg fill="none" viewBox="0 0 26 26" id="armor" xmlns="http://www.w3.org/2000/svg"><g clip-path="url(#aclip0_89_3524)" fill="#EF3E16"><path d="M13 8.047A4.96 4.96 0 008.046 13 4.96 4.96 0 0013 17.955 4.96 4.96 0 0017.954 13 4.96 4.96 0 0013 8.047zm2.941 4.02l-3.549 3.55a.76.76 0 01-1.079 0L9.957 14.26a.763.763 0 111.079-1.078l.816.817 3.01-3.01a.763.763 0 111.079 1.079z"/><path d="M24.044 7.054v-.02c-.012-.25-.02-.514-.024-.808a2.756 2.756 0 00-2.595-2.7c-2.989-.166-5.301-1.14-7.277-3.067L14.13.443a1.664 1.664 0 00-2.261 0l-.017.016c-1.976 1.926-4.289 2.9-7.278 3.068a2.755 2.755 0 00-2.595 2.7c-.004.291-.012.556-.023.807l-.001.047c-.058 3.048-.13 6.842 1.139 10.286.697 1.893 1.754 3.54 3.14 4.892 1.58 1.541 3.648 2.764 6.147 3.636A1.9 1.9 0 0013 26a1.867 1.867 0 00.619-.105c2.497-.874 4.563-2.098 6.14-3.638 1.386-1.354 2.443-3 3.141-4.894 1.274-3.454 1.202-7.255 1.144-10.309zM13 19.48A6.487 6.487 0 016.52 13 6.487 6.487 0 0113 6.52 6.487 6.487 0 0119.48 13 6.487 6.487 0 0113 19.48z"/></g><defs><clipPath id="aclip0_89_3524"><path fill="#fff" d="M0 0h26v26H0z"/></clipPath></defs></svg><svg fill="none" viewBox="0 0 26 22" id="arrowSlider" xmlns="http://www.w3.org/2000/svg"><path d="M14.941 13.467H.5V8.533H16.126l-.827-.85-3.395-3.487L15.29.716 25.302 11 15.291 21.283l-3.387-3.479 3.395-3.488.827-.849H14.94z" stroke="#151515"/></svg><svg fill="none" viewBox="0 0 1920 769" id="assortiment-line1" xmlns="http://www.w3.org/2000/svg"><path d="M-55 160.999c0-99 120.5-174.998 229.499-157C394.789 40.374 266.453 213.92 622 174c197.999-22.232 354.456 13.564 435.5 165 87.5 163.5 105.3 387.332 384.57 332.431 174.7-34.342 369.23 212.951 575.41 26.102" stroke="#DAC9BC"/></svg><svg fill="none" viewBox="0 0 1920 1449" id="assortiment-line2" xmlns="http://www.w3.org/2000/svg"><path d="M1977 .5c137 278.999-192.84 235.999-285.5 374.5-100.09 149.609-26.24 450.122-383.34 428.008-198.86-12.315-204.96 173.69-248.74 311.812-61.359 193.57-264.301 256.85-545.969 215.97-176.193-25.58-358.133 231.12-573.387 54.8" stroke="#DAC9BC"/></svg><svg fill="none" viewBox="0 0 38 54" id="bg-footer" xmlns="http://www.w3.org/2000/svg"><path opacity=".2" fill-rule="evenodd" clip-rule="evenodd" d="M12.609 5.074L9.808 9.207l-1.03-.726-1.029-.726-.626.99-.625.991-2.941-2.13C1.939 6.437.569 5.487.512 5.497c-.057.011.128 1.527.411 3.369l.515 3.349 3.121 2.273L7.68 16.76l.67-.963.671-.963.955.672.954.673 2.806-4.128 2.805-4.128 3.996 2.881c2.197 1.585 4.09 2.865 4.206 2.845.116-.02.461-.42.768-.887l.557-.85.853.601c.469.33.941.586 1.049.566.108-.019 1.105-1.377 2.216-3.018l2.02-2.983-.622-3.526-.622-3.526-2.11 3.1-2.108 3.1-.958-.691-.958-.692-.647.979-.647.978-4.062-2.93L15.41.94l-2.801 4.134zM4.42 28.747l2.187 12.628 3.109 2.234 3.109 2.234-.99-5.617-.991-5.616.667-.958.667-.958 1.009.73 1.01.728 1.342 7.312 1.342 7.312 2.98 2.151 2.978 2.152-1.886-10.695-1.885-10.695-2.083-1.512-2.083-1.511 1.44-2.133 1.44-2.133-.942-5.345c-.519-2.94-1.012-5.334-1.097-5.32-.085.016-1.027 1.316-2.092 2.89l-1.937 2.862.312 1.768.312 1.767-1.406 2.06-1.405 2.059-.604-3.427-.605-3.427-2.923-2.105c-1.607-1.159-2.977-2.097-3.043-2.085-.065.012.865 5.704 2.068 12.65zm18.37 3.99l3.479 19.733 2.066-3.036 2.065-3.036-1.922-10.902-1.923-10.902 1.05.744 1.051.743.51-.867c.28-.477.591-.881.69-.899.104-.018.856 3.793 1.765 8.951l1.585 8.983 2.065-3.036 2.066-3.035-2.254-12.779-2.253-12.778-2.721 4.004-2.722 4.004-.769-.494c-.422-.27-2.24-1.536-4.038-2.811l-3.27-2.319 3.48 19.732z" fill="#472D1C"/></svg><svg fill="none" viewBox="0 0 38 54" id="bg-item-footer" xmlns="http://www.w3.org/2000/svg"><path opacity=".2" fill-rule="evenodd" clip-rule="evenodd" d="M12.635 5.468L9.834 9.601l-1.03-.726-1.03-.726-.625.99-.626.992L3.583 8C1.964 6.831.594 5.881.537 5.891c-.057.01.128 1.526.41 3.368l.516 3.35 3.12 2.273 3.122 2.273.67-.963.671-.963.955.672.954.672 2.806-4.128 2.805-4.128 3.996 2.882c2.197 1.584 4.09 2.864 4.206 2.844.115-.02.46-.42.767-.886l.557-.85.853.601c.47.33.942.585 1.05.566.108-.019 1.105-1.377 2.216-3.018l2.02-2.984-.623-3.526L30.988.42l-2.11 3.1-2.109 3.101-.957-.692-.958-.691-.647.978-.648.979-4.062-2.93-4.061-2.93-2.801 4.133zm-8.19 23.673L6.634 41.77l3.109 2.234 3.108 2.233-.99-5.616-.99-5.617.666-.957.667-.958 1.01.729 1.009.729 1.342 7.311 1.343 7.312 2.979 2.152 2.979 2.151-1.886-10.695-1.886-10.694-2.082-1.512-2.083-1.512 1.44-2.132 1.44-2.133-.943-5.346c-.518-2.94-1.012-5.334-1.097-5.319-.085.015-1.026 1.315-2.091 2.89L11.74 19.88l.312 1.768.311 1.767-1.405 2.06-1.406 2.06-.604-3.428-.604-3.426-2.923-2.106c-1.608-1.158-2.977-2.096-3.043-2.085-.066.012.864 5.704 2.068 12.65zm18.37 3.991l3.48 19.732 2.065-3.035 2.066-3.036-1.923-10.902-1.922-10.902 1.05.743 1.05.744.51-.867c.281-.477.592-.882.691-.9.104-.018.856 3.794 1.765 8.952l1.584 8.983 2.066-3.036 2.065-3.036-2.253-12.778-2.253-12.779-2.722 4.004-2.721 4.005-.77-.494c-.422-.271-2.239-1.537-4.037-2.812l-3.27-2.318 3.48 19.732z" fill="#472D1C"/></svg><svg fill="none" viewBox="0 0 18 22" id="burn" xmlns="http://www.w3.org/2000/svg"><path fill-rule="evenodd" clip-rule="evenodd" d="M14.182 8.264l2.262-2.362 1.216 4.337a9.015 9.015 0 01-1.328 7.674 8.77 8.77 0 01-7.313 3.923 8.758 8.758 0 01-6.688-3.093C.353 16.543-.542 13.386.34 10.24l1.216-4.337 2.262 2.362L9 0l5.182 8.264z" fill="#EF3E16"/></svg><svg fill="none" viewBox="0 0 22 22" id="cash" xmlns="http://www.w3.org/2000/svg"><path d="M15.83 4.592l-1.945-3.334a.69.69 0 00-.947-.244l-5.95 3.57 8.843.008z" fill="#EF3E16"/><path d="M2.75 5.5a.92.92 0 01-.917-.916.92.92 0 01.917-.917h3.09L8.9 1.834H2.75c-1.357 0-2.484.99-2.704 2.291C.028 4.2 0 4.272 0 4.355v13.979a2.758 2.758 0 002.75 2.75h15.583a1.839 1.839 0 001.834-1.834v-1.833h-2.292a4.131 4.131 0 01-4.125-4.125 4.131 4.131 0 014.125-4.125h2.292V7.334A1.839 1.839 0 0018.333 5.5H2.75zm14.667-1.833a1.83 1.83 0 00-1.586-1.815l1.586 2.732v-.917z" fill="#EF3E16"/><path d="M21.313 10.542h-3.438a2.753 2.753 0 00-2.75 2.75 2.753 2.753 0 002.75 2.75h3.438c.379 0 .687-.308.687-.688V11.23a.688.688 0 00-.688-.687zm-3.438 3.666a.917.917 0 110-1.834.917.917 0 010 1.834z" fill="#EF3E16"/></svg><svg fill="none" viewBox="0 0 12 40" id="decorForBtn" xmlns="http://www.w3.org/2000/svg"><path fill-rule="evenodd" clip-rule="evenodd" d="M4.833 24.474l4.833 4.636-1.205 1.184-1.206 1.184 1.17 1.052 1.169 1.05-3.516 3.37c-1.935 1.854-3.517 3.433-3.516 3.51 0 .078 2.057.186 4.57.24l4.568.1 3.75-3.573 3.75-3.573-1.122-1.104-1.122-1.103 1.116-1.098 1.117-1.099-4.826-4.64 5.175-4.641-5.238-4.58c2.62-2.52 4.763-4.71 4.763-4.866 0-.156-.45-.703-.998-1.214l-.997-.928.997-.981c.549-.54.998-1.101.998-1.247 0-.146-1.57-1.77-3.49-3.61L12.085-.8H2.427L6.05 2.688l3.623 3.488-1.143 1.098-1.143 1.098 1.148 1.076 1.148 1.077-4.842 4.657L0 19.838l4.833 4.636z" fill="#BF2A09"/></svg><svg fill="none" viewBox="0 0 30 32" id="leaf" xmlns="http://www.w3.org/2000/svg"><path d="M17.19 0l-3.9 4.75s.83 7.5 16.38 9.68c0 .01-12.68-3.6-12.48-14.43zM17.19 31.06l-3.9-4.75s.83-7.5 16.38-9.68c0 0-12.68 3.61-12.48 14.43zM0 15.53l6.56-3.13 15.6 3.13-15.6 3.14L0 15.53z" fill="#1A1A1A"/></svg><svg fill="none" viewBox="0 0 44 73" id="logo" xmlns="http://www.w3.org/2000/svg"><path fill-rule="evenodd" clip-rule="evenodd" d="M17.267 4.968l-4.903 4.968-1.252-1.239-1.253-1.239L8.747 8.66 7.635 9.862 4.071 6.247C2.111 4.26.441 2.633.36 2.634c-.082 0-.196 2.114-.254 4.697L0 12.027l3.779 3.855 3.779 3.854 1.167-1.153 1.168-1.154 1.161 1.148 1.162 1.148 4.908-4.96 4.909-4.96 4.844 4.895c2.665 2.692 4.98 4.895 5.146 4.895.166 0 .744-.461 1.284-1.025l.982-1.025 1.038 1.025c.57.564 1.164 1.025 1.319 1.025.154 0 1.873-1.614 3.818-3.586L44 12.42V2.495L40.31 6.22l-3.689 3.724-1.16-1.174-1.162-1.175-1.139 1.18-1.139 1.18-4.925-4.978L22.171 0l-4.904 4.968zM.092 35.315L.038 53.083l3.771 3.797 3.771 3.798V44.866l1.161-1.147 1.161-1.147 1.224 1.238 1.224 1.238.073 10.305.074 10.305 3.612 3.655 3.611 3.654V42.858l-2.523-2.565-2.523-2.565 2.523-2.565 2.523-2.565v-7.525c0-4.138-.1-7.525-.221-7.525-.122 0-1.748 1.548-3.613 3.44l-3.392 3.442v4.976l-2.457 2.473-2.457 2.473v-9.647l-3.544-3.579C2.086 19.158.413 17.548.319 17.548c-.094 0-.196 7.995-.227 17.767zm24.542 9.87v27.776l3.613-3.647 3.613-3.647V34.974l1.277 1.268 1.277 1.269.921-1.062c.506-.583 1.037-1.06 1.18-1.06.148 0 .259 5.383.259 12.644v12.645l3.613-3.647L44 53.384V17.409l-4.762 4.81-4.761 4.812-.947-.859c-.521-.472-2.736-2.637-4.922-4.81l-3.974-3.952v27.775z" fill="#EF3E16"/></svg><svg fill="none" viewBox="0 0 320 530" id="logoBigBlack" xmlns="http://www.w3.org/2000/svg"><path opacity=".1" fill-rule="evenodd" clip-rule="evenodd" d="M125.582 36.062L89.919 72.124l-9.106-8.993-9.11-8.995-8.086 8.726-8.087 8.723-25.92-26.237C15.355 30.916 3.205 19.113 2.61 19.117c-.595.004-1.425 15.347-1.846 34.096L0 87.301l27.483 27.98 27.484 27.98 8.49-8.373 8.49-8.373 8.447 8.331 8.447 8.33 35.698-36.005 35.699-36.004 35.233 35.535c19.378 19.544 36.22 35.536 37.427 35.536 1.204 0 5.407-3.35 9.336-7.443l7.143-7.443 7.546 7.443c4.152 4.093 8.468 7.443 9.592 7.443 1.125 0 13.62-11.717 27.765-26.036L320 90.165V18.108l-26.832 27.038-26.833 27.037-8.443-8.527-8.444-8.528-8.282 8.566-8.283 8.566-35.82-36.13L161.244 0l-35.662 36.062zM.672 256.345L.276 385.312l27.427 27.568 27.429 27.566V325.671l8.442-8.327 8.444-8.326 8.898 8.987 8.9 8.986.537 74.803.536 74.803 26.266 26.526 26.266 26.526V311.095l-18.349-18.618-18.35-18.618 18.35-18.618 18.349-18.618V182c0-30.042-.725-54.623-1.61-54.623-.885 0-12.709 11.239-26.277 24.976l-24.666 24.976v36.12L72.999 231.4 55.13 249.352v-70.027L29.35 153.351c-14.181-14.285-26.344-25.974-27.031-25.974-.686 0-1.428 58.034-1.646 128.968zm178.485 71.644v201.618l26.276-26.473 26.277-26.473V253.869l9.287 9.205 9.288 9.205 6.697-7.702c3.683-4.235 7.545-7.702 8.581-7.702 1.081 0 1.884 39.081 1.884 91.785v91.784l26.276-26.473L320 387.498V126.365l-34.631 34.924-34.628 34.924-6.889-6.235c-3.788-3.427-19.892-19.143-35.791-34.92l-28.904-28.685v201.616z" fill="#472D1C"/></svg><svg fill="none" viewBox="0 0 300 497" id="logoBigWhite" xmlns="http://www.w3.org/2000/svg"><path fill-rule="evenodd" clip-rule="evenodd" d="M117.733 33.808L84.299 67.616l-8.537-8.43-8.54-8.433-7.581 8.18-7.582 8.178L27.76 42.513C14.394 28.983 3.003 17.918 2.446 17.923c-.558.003-1.336 14.387-1.73 31.964L0 81.844l25.766 26.232 25.765 26.231 7.96-7.849 7.96-7.85 7.919 7.81 7.918 7.809 33.467-33.754 33.468-33.754 33.032 33.314c18.166 18.322 33.956 33.315 35.087 33.315 1.129 0 5.069-3.141 8.752-6.978l6.697-6.978 7.075 6.978c3.892 3.837 7.938 6.978 8.992 6.978 1.054 0 12.769-10.984 26.03-24.408L300 84.53V16.976l-25.155 25.347-25.156 25.348-7.915-7.995-7.916-7.995-7.765 8.031-7.765 8.03-33.582-33.871L151.167 0l-33.434 33.808zM.631 240.323L.258 361.23l25.713 25.845 25.714 25.843V305.316l7.914-7.806 7.917-7.805 8.342 8.424 8.344 8.425.503 70.128.502 70.128 24.625 24.868 24.625 24.868V291.651l-17.203-17.454-17.203-17.455 17.203-17.454 17.203-17.454v-51.209c0-28.164-.68-51.209-1.51-51.209s-11.915 10.536-24.634 23.415l-23.125 23.415v33.862l-16.752 16.83-16.751 16.829v-65.65l-24.17-24.35c-13.294-13.393-24.697-24.351-25.341-24.351-.643 0-1.338 54.407-1.543 120.907zm167.328 67.166v189.017l24.635-24.818 24.634-24.818V238.002l8.707 8.63 8.707 8.63 6.279-7.221c3.453-3.97 7.073-7.22 8.044-7.22 1.013 0 1.766 36.638 1.766 86.047v86.048l24.635-24.818L300 363.28V118.467l-32.466 32.741-32.464 32.742-6.459-5.846c-3.551-3.212-18.649-17.946-33.554-32.737l-27.098-26.892v189.014z" fill="#FAFAFB"/></svg><svg fill="none" viewBox="0 0 26 32" id="medal" xmlns="http://www.w3.org/2000/svg"><path d="M21.348 22.645l-.51.245-1.486 1.863a1.492 1.492 0 01-1.172.564h-2.383l-1.346.649 4.196 5.517a.749.749 0 001.27-.123l1.315-2.674 2.927-.552a.75.75 0 00.458-1.191l-3.27-4.299zM7.82 25.317a1.493 1.493 0 01-1.172-.564L5.162 22.89l-.51-.245-3.269 4.298a.75.75 0 00.458 1.19l2.927.553 1.315 2.674a.75.75 0 001.27.123l4.196-5.517-1.346-.649H7.82z" fill="#EF3E16"/><path d="M24.801 13.063l.568-2.49a.75.75 0 00-.144-.635l-1.593-1.996-.568-2.49a.75.75 0 00-.405-.508l-2.301-1.108-1.592-1.996a.75.75 0 00-.586-.283h-2.554L13.326.45a.75.75 0 00-.651 0l-2.301 1.108H7.821a.75.75 0 00-.587.283L5.642 3.836l-2.3 1.108a.75.75 0 00-.406.509l-.568 2.49L.775 9.937a.75.75 0 00-.144.635l.568 2.49-.568 2.489a.75.75 0 00.144.634l1.593 1.997.568 2.49a.75.75 0 00.406.508l2.3 1.108 1.592 1.996a.75.75 0 00.587.283h2.553l2.3 1.108a.751.751 0 00.652 0l2.3-1.108h2.554a.75.75 0 00.586-.283l1.592-1.996 2.3-1.108a.748.748 0 00.406-.509l.569-2.489 1.592-1.996a.75.75 0 00.144-.635l-.568-2.49zM13 22.25c-5.031 0-9.125-4.093-9.125-9.125S7.969 4 13 4s9.125 4.094 9.125 9.125S18.032 22.25 13 22.25z" fill="#EF3E16"/><path d="M13 4.75c-4.618 0-8.375 3.757-8.375 8.375S8.382 21.5 13 21.5s8.375-3.757 8.375-8.375S17.618 4.75 13 4.75zm0 3.77a.75.75 0 110 1.501.75.75 0 010-1.5zM7.75 12a.75.75 0 110-1.5.75.75 0 010 1.5zm9.915.841l-.714 4.282a.75.75 0 01-.74.627H9.79a.75.75 0 01-.74-.627l-.714-4.282a.75.75 0 011.15-.75l1.538 1.003 1.336-2.193a.75.75 0 011.281 0l1.337 2.193 1.538-1.004a.75.75 0 011.15.751zM18.25 12a.75.75 0 110-1.5.75.75 0 010 1.5z" fill="#EF3E16"/></svg><svg fill="none" viewBox="0 0 18 18" id="phone" xmlns="http://www.w3.org/2000/svg"><path d="M16.556 11.815c-1.102 0-2.184-.172-3.21-.511-.502-.172-1.12-.014-1.427.3l-2.024 1.528c-2.347-1.253-3.792-2.698-5.028-5.027L6.35 6.133c.385-.384.523-.946.357-1.474a10.235 10.235 0 01-.513-3.215C6.194.648 5.546 0 4.75 0H1.444C.648 0 0 .648 0 1.444 0 10.574 7.427 18 16.556 18c.796 0 1.444-.648 1.444-1.444v-3.297c0-.796-.648-1.444-1.444-1.444z" fill="#0A0A0A"/></svg><svg fill="none" viewBox="0 0 20 16" id="telega" xmlns="http://www.w3.org/2000/svg"><path d="M7.848 10.545l-.331 4.467c.473 0 .678-.195.924-.43l2.22-2.035 4.598 3.232c.843.452 1.437.214 1.665-.744l3.018-13.578h.001c.268-1.197-.45-1.665-1.272-1.372L.929 6.605C-.282 7.058-.264 7.706.723 8l4.536 1.354 10.536-6.329c.496-.315.946-.14.575.175l-8.522 7.346z" fill="#0A0A0A"/></svg><svg fill="none" viewBox="0 0 34 29" id="telegaColor" xmlns="http://www.w3.org/2000/svg"><path d="M13.341 18.674l-.562 7.911c.805 0 1.153-.346 1.571-.76l3.773-3.606 7.817 5.725c1.434.799 2.444.378 2.83-1.32L33.903 2.58l.001-.001c.455-2.12-.766-2.948-2.163-2.428L1.578 11.698c-2.058.8-2.027 1.947-.35 2.467l7.712 2.398L26.85 5.356c.843-.558 1.61-.25.979.309L13.34 18.675z" fill="#039BE5"/></svg><svg fill="none" viewBox="0 0 20 21" id="viberBlack" xmlns="http://www.w3.org/2000/svg"><path d="M17.3 8.619c.024-2.896-2.442-5.55-5.498-5.917a4.454 4.454 0 01-.197-.03 2.858 2.858 0 00-.466-.05c-.626 0-.793.44-.837.701-.043.256-.002.47.12.638.208.282.573.332.867.372.085.012.167.023.234.038 2.746.614 3.67 1.578 4.123 4.3.01.067.015.149.02.236.02.325.061 1.002.79 1.002.06 0 .125-.005.193-.015.678-.103.657-.722.646-1.02a1.502 1.502 0 01.005-.255z" fill="#0A0A0A"/><path d="M10.962 1.638c.081.006.158.012.222.022 4.509.693 6.582 2.83 7.157 7.373.01.078.011.172.013.272.006.355.017 1.093.81 1.109h.025c.249 0 .447-.075.588-.223.247-.259.23-.642.216-.95-.003-.076-.006-.148-.006-.21C20.045 4.384 16.022.17 11.38.013c-.02 0-.038 0-.057.003a.39.39 0 01-.055.003c-.046 0-.103-.004-.163-.008C11.03.006 10.948 0 10.864 0c-.74 0-.88.526-.898.839-.041.724.659.775.996.8zM18.123 14.906a13.987 13.987 0 01-.287-.224 27.567 27.567 0 00-1.523-1.115l-.315-.22c-.649-.455-1.232-.677-1.783-.677-.742 0-1.39.41-1.924 1.22-.236.358-.523.532-.877.532-.21 0-.447-.06-.707-.178-2.094-.95-3.59-2.405-4.444-4.327-.414-.93-.28-1.536.448-2.03.413-.281 1.182-.803 1.128-1.803-.062-1.135-2.567-4.55-3.622-4.938a2.056 2.056 0 00-1.398-.004C1.606 1.55.735 2.266.301 3.213c-.42.915-.4 1.99.055 3.107 1.316 3.232 3.167 6.05 5.501 8.375 2.285 2.276 5.092 4.14 8.345 5.54.294.127.601.196.826.246.076.017.142.032.19.045a.323.323 0 00.082.012h.025c1.53 0 3.368-1.398 3.932-2.992.494-1.396-.408-2.086-1.134-2.64zM11.638 5.329c-.262.006-.807.02-.998.575-.09.26-.079.485.032.67.162.27.473.354.756.4 1.027.164 1.554.732 1.66 1.786.048.49.38.834.804.834a.79.79 0 00.095-.006c.511-.06.759-.436.737-1.115.008-.71-.363-1.514-.994-2.156-.634-.643-1.397-1.005-2.092-.988z" fill="#0A0A0A"/></svg><svg fill="none" viewBox="0 0 34 35" id="viberColor" xmlns="http://www.w3.org/2000/svg"><path d="M29.41 14.653c.042-4.922-4.151-9.435-9.346-10.059a7.574 7.574 0 01-.335-.05 4.856 4.856 0 00-.792-.087c-1.065 0-1.35.748-1.424 1.194-.073.434-.004.798.206 1.083.353.48.973.565 1.471.633.146.02.284.039.4.065 4.667 1.043 6.24 2.683 7.007 7.31.019.114.027.253.037.4.033.554.103 1.705 1.34 1.705.103 0 .214-.009.33-.026 1.152-.175 1.116-1.228 1.098-1.733a2.569 2.569 0 01.008-.435z" fill="#7F40BD"/><path d="M18.635 2.785c.138.01.269.02.378.037C26.678 4 30.203 7.632 31.18 15.357c.016.131.019.291.022.46.01.604.03 1.86 1.378 1.886h.042c.422 0 .759-.127 1-.379.42-.439.39-1.091.366-1.615-.005-.129-.011-.25-.01-.356.098-7.9-6.74-15.065-14.634-15.331a.548.548 0 00-.096.005.664.664 0 01-.093.005c-.08 0-.176-.007-.279-.014C18.752.01 18.611 0 18.47 0c-1.257 0-1.496.893-1.527 1.426-.07 1.231 1.12 1.318 1.693 1.36zM30.81 25.34a24.126 24.126 0 01-.49-.38c-.836-.674-1.727-1.295-2.588-1.896l-.535-.373c-1.103-.775-2.095-1.152-3.031-1.152-1.262 0-2.362.697-3.27 2.072-.403.61-.89.906-1.492.906-.356 0-.76-.101-1.201-.302-3.56-1.614-6.102-4.09-7.556-7.357-.703-1.579-.475-2.611.762-3.451.702-.477 2.01-1.364 1.917-3.064-.105-1.93-4.363-7.736-6.157-8.395-.76-.28-1.558-.282-2.376-.007C2.73 2.634 1.25 3.852.513 5.462c-.714 1.556-.682 3.382.092 5.283C2.843 16.238 5.99 21.027 9.957 24.98c3.884 3.87 8.657 7.038 14.187 9.42.499.214 1.021.331 1.403.417.13.029.243.054.325.076a.541.541 0 00.137.02h.044c2.601 0 5.725-2.377 6.684-5.087.84-2.372-.694-3.545-1.927-4.488zM19.785 9.06c-.445.01-1.372.034-1.697.978-.152.44-.134.824.054 1.138.276.461.805.602 1.286.68 1.745.28 2.641 1.245 2.82 3.036.084.835.646 1.419 1.368 1.419.054 0 .108-.004.163-.01.868-.104 1.29-.742 1.251-1.897.014-1.205-.617-2.574-1.69-3.664-1.076-1.093-2.374-1.709-3.555-1.68z" fill="#7F40BD"/></svg><svg fill="none" viewBox="0 0 20 20" id="whatsupBlack" xmlns="http://www.w3.org/2000/svg"><path d="M10.002 0h-.005C4.485 0 0 4.485 0 10c0 2.188.705 4.215 1.904 5.861L.658 19.576 4.5 18.347A9.913 9.913 0 0010.002 20C15.517 20 20 15.514 20 10S15.516 0 10.002 0z" fill="#0A0A0A"/></svg><svg fill="none" viewBox="0 0 34 34" id="whatsupColor" xmlns="http://www.w3.org/2000/svg"><path d="M17.004 0h-.008C7.622 0 0 7.625 0 17c0 3.719 1.198 7.166 3.236 9.964L1.118 33.28l6.534-2.09A16.853 16.853 0 0017.004 34C26.378 34 34 26.373 34 17c0-9.373-7.622-17-16.996-17z" fill="#4CAF50"/><path d="M26.896 24.006c-.41 1.158-2.038 2.119-3.336 2.4-.888.188-2.048.34-5.954-1.28-4.996-2.07-8.213-7.146-8.464-7.476-.24-.33-2.019-2.688-2.019-5.127 0-2.44 1.24-3.628 1.739-4.138.41-.418 1.088-.61 1.738-.61.21 0 .4.011.57.02.499.02.75.05 1.079.839.41.988 1.409 3.428 1.528 3.678.12.251.242.591.072.92-.16.34-.3.491-.55.78-.251.29-.49.51-.74.82-.23.27-.489.56-.2 1.059.29.489 1.288 2.118 2.758 3.427 1.898 1.69 3.437 2.23 3.987 2.459.41.17.899.13 1.198-.19.38-.41.85-1.09 1.329-1.759.34-.48.769-.54 1.22-.37.458.16 2.887 1.36 3.387 1.61.499.25.828.369.95.58.119.21.119 1.198-.292 2.358z" fill="#FAFAFA"/></svg></svg>